<?xml version="1.0" encoding="iso-8859-1"?>
<!-- Generator: Adobe Illustrator 19.0.0, SVG Export Plug-In . SVG Version: 6.00 Build 0)  -->
<svg version="1.1" id="Capa_1" xmlns="http://www.w3.org/2000/svg" xmlns:xlink="http://www.w3.org/1999/xlink" x="0px" y="0px"
	 viewBox="-100 -100 712 712" style="enable-background:new 0 0 512 512;" xml:space="preserve">
<path style="fill:#90CAF9;" d="M256,256l169.6,169.6C382.08,469.12,322.24,496,256,496C123.52,496,16,388.48,16,256
	S123.52,16,256,16c66.24,0,126.08,26.88,169.6,70.4L256,256z"/>
<path style="fill:#FFC107;" d="M496,256c0,66.24-26.88,126.08-70.4,169.6L256,256L425.6,86.4C469.12,129.92,496,189.76,496,256z"/>
<g>
	<path style="fill:#2196F3;" d="M289.92,238.08c-4.096,0-8.192-1.568-11.328-4.672c-6.24-6.24-6.24-16.384,0-22.624l135.68-135.68
		c6.24-6.24,16.384-6.24,22.624,0s6.24,16.384,0,22.624l-135.68,135.68C298.08,236.512,294.016,238.08,289.92,238.08z"/>
	<path style="fill:#2196F3;" d="M425.6,441.6c-4.096,0-8.192-1.568-11.328-4.672l-135.68-135.68c-6.24-6.24-6.24-16.384,0-22.624
		s16.384-6.24,22.624,0l135.68,135.68c6.24,6.24,6.24,16.384,0,22.624C433.792,440.032,429.696,441.6,425.6,441.6z"/>
	<circle style="fill:#2196F3;" cx="256" cy="256" r="64"/>
	<path style="fill:#2196F3;" d="M256,384c-70.592,0-128-57.408-128-128s57.408-128,128-128c35.296,0,67.296,14.368,90.464,37.536
		l22.624-22.624C340.096,113.952,300.096,96,256,96c-88.224,0-160,71.776-160,160s71.776,160,160,160
		c44.096,0,84.096-17.952,113.088-46.912l-22.624-22.624C323.296,369.664,291.296,384,256,384z"/>
	<path style="fill:#2196F3;" d="M256,512C114.848,512,0,397.152,0,256S114.848,0,256,0s256,114.848,256,256S397.152,512,256,512z
		 M256,32C132.48,32,32,132.48,32,256c0,123.488,100.48,224,224,224c123.488,0,224-100.512,224-224C480,132.48,379.488,32,256,32z"
		/>
</g>
<g>
</g>
<g>
</g>
<g>
</g>
<g>
</g>
<g>
</g>
<g>
</g>
<g>
</g>
<g>
</g>
<g>
</g>
<g>
</g>
<g>
</g>
<g>
</g>
<g>
</g>
<g>
</g>
<g>
</g>
</svg>
