<svg height="395.94667pt" viewBox="-100 -100 595.94667 595.94667" width="395.94667pt" xmlns="http://www.w3.org/2000/svg"><g fill="#0e65e5"><path d="m20.480469 395.945312h-13.652344c-3.773437 0-6.828125-3.050781-6.828125-6.824218v-13.65625c0-3.773438 3.054688-6.824219 6.828125-6.824219s6.824219 3.050781 6.824219 6.824219v6.828125h6.828125c3.773437 0 6.828125 3.054687 6.828125 6.828125 0 3.773437-3.054688 6.824218-6.828125 6.824218zm0 0"/><path d="m6.828125 350.019531c-3.773437 0-6.828125-3.050781-6.828125-6.824219v-32.273437c0-3.773437 3.054688-6.828125 6.828125-6.828125s6.824219 3.054688 6.824219 6.828125v32.273437c0 3.773438-3.050782 6.824219-6.824219 6.824219zm0-64.539062c-3.773437 0-6.828125-3.054688-6.828125-6.828125v-32.273438c0-3.773437 3.054688-6.824218 6.828125-6.824218s6.824219 3.050781 6.824219 6.824218v32.273438c0 3.773437-3.050782 6.828125-6.824219 6.828125zm0 0"/><path d="m6.828125 220.933594c-3.773437 0-6.828125-3.054688-6.828125-6.828125v-32.273438c0-3.773437 3.054688-6.824219 6.828125-6.824219s6.824219 3.050782 6.824219 6.824219v32.273438c0 3.773437-3.050782 6.828125-6.824219 6.828125zm0-64.539063c-3.773437 0-6.828125-3.054687-6.828125-6.828125v-32.273437c0-3.773438 3.054688-6.824219 6.828125-6.824219s6.824219 3.050781 6.824219 6.824219v32.273437c0 3.773438-3.050782 6.828125-6.824219 6.828125zm0-64.546875c-3.773437 0-6.828125-3.054687-6.828125-6.828125v-32.273437c0-3.773438 3.054688-6.828125 6.828125-6.828125s6.824219 3.054687 6.824219 6.828125v32.273437c0 3.773438-3.050782 6.828125-6.824219 6.828125zm0 0"/><path d="m6.828125 27.308594c-3.773437 0-6.828125-3.054688-6.828125-6.828125v-13.652344c0-3.773437 3.054688-6.828125 6.828125-6.828125h13.652344c3.773437 0 6.828125 3.054688 6.828125 6.828125s-3.054688 6.824219-6.828125 6.824219h-6.828125v6.828125c0 3.773437-3.050782 6.828125-6.824219 6.828125zm0 0"/><path d="m149.566406 13.652344h-32.273437c-3.773438 0-6.824219-3.050782-6.824219-6.824219s3.050781-6.828125 6.824219-6.828125h32.273437c3.773438 0 6.828125 3.054688 6.828125 6.828125s-3.054687 6.824219-6.828125 6.824219zm-64.539062 0h-32.273438c-3.773437 0-6.828125-3.050782-6.828125-6.824219s3.054688-6.828125 6.828125-6.828125h32.273438c3.773437 0 6.824218 3.054688 6.824218 6.828125s-3.050781 6.824219-6.824218 6.824219zm0 0"/><path d="m343.199219 13.652344h-32.273438c-3.773437 0-6.824219-3.050782-6.824219-6.824219s3.050782-6.828125 6.824219-6.828125h32.273438c3.773437 0 6.828125 3.054688 6.828125 6.828125s-3.054688 6.824219-6.828125 6.824219zm-64.546875 0h-32.273438c-3.773437 0-6.824218-3.050782-6.824218-6.824219s3.050781-6.828125 6.824218-6.828125h32.273438c3.773437 0 6.828125 3.054688 6.828125 6.828125s-3.054688 6.824219-6.828125 6.824219zm-64.539063 0h-32.273437c-3.773438 0-6.828125-3.050782-6.828125-6.824219s3.054687-6.828125 6.828125-6.828125h32.273437c3.773438 0 6.828125 3.054688 6.828125 6.828125s-3.054687 6.824219-6.828125 6.824219zm0 0"/><path d="m389.121094 27.308594c-3.773438 0-6.828125-3.054688-6.828125-6.828125v-6.828125h-6.828125c-3.773438 0-6.824219-3.050782-6.824219-6.824219s3.050781-6.828125 6.824219-6.828125h13.65625c3.773437 0 6.824218 3.054688 6.824218 6.828125v13.652344c0 3.773437-3.050781 6.828125-6.824218 6.828125zm0 0"/><path d="m389.121094 156.394531c-3.773438 0-6.828125-3.054687-6.828125-6.828125v-32.273437c0-3.773438 3.054687-6.824219 6.828125-6.824219 3.773437 0 6.824218 3.050781 6.824218 6.824219v32.273437c0 3.773438-3.050781 6.828125-6.824218 6.828125zm0-64.542969c-3.773438 0-6.828125-3.050781-6.828125-6.824218v-32.273438c0-3.773437 3.054687-6.828125 6.828125-6.828125 3.773437 0 6.824218 3.054688 6.824218 6.828125v32.273438c0 3.773437-3.050781 6.824218-6.824218 6.824218zm0 0"/><path d="m389.121094 350.027344c-3.773438 0-6.828125-3.054688-6.828125-6.828125v-32.273438c0-3.773437 3.054687-6.824219 6.828125-6.824219 3.773437 0 6.824218 3.050782 6.824218 6.824219v32.273438c0 3.773437-3.050781 6.828125-6.824218 6.828125zm0-64.546875c-3.773438 0-6.828125-3.054688-6.828125-6.828125v-32.273438c0-3.773437 3.054687-6.824218 6.828125-6.824218 3.773437 0 6.824218 3.050781 6.824218 6.824218v32.273438c0 3.773437-3.050781 6.828125-6.824218 6.828125zm0-64.539063c-3.773438 0-6.828125-3.054687-6.828125-6.828125v-32.273437c0-3.773438 3.054687-6.828125 6.828125-6.828125 3.773437 0 6.824218 3.054687 6.824218 6.828125v32.273437c0 3.773438-3.050781 6.828125-6.824218 6.828125zm0 0"/><path d="m389.121094 395.945312h-13.65625c-3.773438 0-6.824219-3.050781-6.824219-6.824218 0-3.773438 3.050781-6.828125 6.824219-6.828125h6.828125v-6.828125c0-3.773438 3.054687-6.824219 6.828125-6.824219 3.773437 0 6.824218 3.050781 6.824218 6.824219v13.65625c0 3.773437-3.050781 6.824218-6.824218 6.824218zm0 0"/><path d="m343.195312 395.945312h-32.273437c-3.773437 0-6.828125-3.050781-6.828125-6.824218 0-3.773438 3.054688-6.828125 6.828125-6.828125h32.273437c3.773438 0 6.824219 3.054687 6.824219 6.828125 0 3.773437-3.050781 6.824218-6.824219 6.824218zm-64.542968 0h-32.273438c-3.773437 0-6.824218-3.050781-6.824218-6.824218 0-3.773438 3.050781-6.828125 6.824218-6.828125h32.273438c3.773437 0 6.828125 3.054687 6.828125 6.828125 0 3.773437-3.054688 6.824218-6.828125 6.824218zm0 0"/><path d="m214.105469 395.945312h-32.273438c-3.773437 0-6.824219-3.050781-6.824219-6.824218 0-3.773438 3.050782-6.828125 6.824219-6.828125h32.273438c3.773437 0 6.828125 3.054687 6.828125 6.828125 0 3.773437-3.054688 6.824218-6.828125 6.824218zm-64.539063 0h-32.273437c-3.773438 0-6.824219-3.050781-6.824219-6.824218 0-3.773438 3.050781-6.828125 6.824219-6.828125h32.273437c3.773438 0 6.828125 3.054687 6.828125 6.828125 0 3.773437-3.054687 6.824218-6.828125 6.824218zm-64.546875 0h-32.273437c-3.773438 0-6.828125-3.050781-6.828125-6.824218 0-3.773438 3.054687-6.828125 6.828125-6.828125h32.273437c3.773438 0 6.828125 3.054687 6.828125 6.828125 0 3.773437-3.054687 6.824218-6.828125 6.824218zm0 0"/></g><path d="m68.265625 6.828125h320.855469v320.851563h-320.855469zm0 0" fill="#d7e9ff" fill-rule="evenodd"/><path d="m389.121094 334.507812h-320.855469c-3.773437 0-6.824219-3.054687-6.824219-6.828124v-320.851563c0-3.773437 3.050782-6.828125 6.824219-6.828125h320.855469c3.773437 0 6.824218 3.054688 6.824218 6.828125v320.851563c0 3.773437-3.050781 6.828124-6.824218 6.828124zm-314.027344-13.65625h307.199219v-307.199218h-307.199219zm0 0" fill="#0e65e5"/><path d="m273.066406 6.828125h116.054688v116.050781h-116.054688zm0 0" fill="#0e65e5" fill-rule="evenodd"/><path d="m389.121094 129.707031h-116.054688c-3.773437 0-6.828125-3.054687-6.828125-6.828125v-116.050781c0-3.773437 3.054688-6.828125 6.828125-6.828125h116.054688c3.773437 0 6.824218 3.054688 6.824218 6.828125v116.050781c0 3.773438-3.050781 6.828125-6.824218 6.828125zm-109.226563-13.652343h102.398438v-102.402344h-102.398438zm0 0" fill="#0e65e5"/><path d="m341.332031 150.1875c-3.773437 0-6.824219-3.054688-6.824219-6.828125v-27.304687c0-3.773438 3.050782-6.828126 6.824219-6.828126 3.773438 0 6.828125 3.054688 6.828125 6.828126v27.304687c0 3.773437-3.054687 6.828125-6.828125 6.828125zm0 0" fill="#fff"/><path d="m354.988281 136.535156h-27.308593c-3.773438 0-6.828126-3.054687-6.828126-6.828125 0-3.773437 3.054688-6.828125 6.828126-6.828125h27.308593c3.773438 0 6.824219 3.054688 6.824219 6.828125 0 3.773438-3.050781 6.828125-6.824219 6.828125zm0 0" fill="#fff"/><path d="m88.746094 102.398438c-3.773438 0-6.824219-3.050782-6.824219-6.824219v-68.265625c0-3.773438 3.050781-6.828125 6.824219-6.828125 3.773437 0 6.828125 3.054687 6.828125 6.828125v68.265625c0 3.773437-3.054688 6.824219-6.828125 6.824219zm0 0" fill="#fff"/></svg>