<svg id="color" enable-background="new 0 0 24 24" height="512" viewBox="-5 -5 34 34" width="512" xmlns="http://www.w3.org/2000/svg"><path d="m12 10c0 .55-.22 1.05-.59 1.41-.36.37-.86.59-1.41.59h-6v-4h6c1.1 0 2 .9 2 2z" fill="#00bcd4"/><path d="m4 8v4h-2c-1.1 0-2-.9-2-2 0-.55.22-1.05.59-1.41.36-.37.86-.59 1.41-.59z" fill="#4dd0e1"/><path d="m24 14c0 .55-.22 1.05-.59 1.41-.36.37-.86.59-1.41.59h-6v-4h6c1.1 0 2 .9 2 2z" fill="#00bcd4"/><path d="m24 18c0 .55-.22 1.05-.59 1.41-.36.37-.86.59-1.41.59h-6v-4h6c1.1 0 2 .9 2 2z" fill="#0097a7"/><path d="m24 22c0 .55-.22 1.05-.59 1.41-.36.37-.86.59-1.41.59h-6v-4h6c1.1 0 2 .9 2 2z" fill="#00bcd4"/><path d="m16 12v4h-2c-1.1 0-2-.9-2-2 0-.55.22-1.05.59-1.41.36-.37.86-.59 1.41-.59z" fill="#4dd0e1"/><path d="m16 16v4h-2c-1.1 0-2-.9-2-2 0-.55.22-1.05.59-1.41.36-.37.86-.59 1.41-.59z" fill="#00bcd4"/><path d="m16 20v4h-2c-1.1 0-2-.9-2-2 0-.55.22-1.05.59-1.41.36-.37.86-.59 1.41-.59z" fill="#4dd0e1"/><path d="m24 14h-8v2h6c.55 0 1.05-.22 1.41-.59.37-.36.59-.86.59-1.41z" fill="#00a4b9"/><path d="m16 14h-4c0 1.1.9 2 2 2h2z" fill="#43b5c4"/><path d="m24 22h-8v2h6c.55 0 1.05-.22 1.41-.59.37-.36.59-.86.59-1.41z" fill="#00a4b9"/><path d="m16 22h-4c0 1.1.9 2 2 2h2z" fill="#43b5c4"/><path d="m24 18h-8v2h6c.55 0 1.05-.22 1.41-.59.37-.36.59-.86.59-1.41z" fill="#008391"/><path d="m16 18h-4c0 1.1.9 2 2 2h2z" fill="#00a4b9"/><path d="m18.75 3.75v-.5c0-.667-.809-1.002-1.28-.53l-1.25 1.25c-.293.293-.293.768 0 1.061l1.25 1.25c.469.469 1.28.141 1.28-.53v-.5c.414 0 .75.336.75.75v1.25c0 .413.336.749.75.749s.75-.336.75-.75v-1.25c0-1.241-1.009-2.25-2.25-2.25z" fill="#607d8b"/><path d="m7.78 18.97-1.25-1.25c-.468-.469-1.28-.141-1.28.53v.5c-.414 0-.75-.336-.75-.75v-1.25c0-.414-.336-.75-.75-.75s-.75.336-.75.75v1.25c0 1.241 1.009 2.25 2.25 2.25v.5c0 .669.811 1 1.28.53l1.25-1.25c.293-.293.293-.767 0-1.06z" fill="#607d8b"/><path d="m3.75 16c-.414 0-.75.336-.75.75v1.25c0 1.241 1.009 2.25 2.25 2.25v.5c0 .453.371.75.757.75.184 0 .372-.068.524-.22l1.25-1.25c.146-.146.219-.338.219-.53h-2.75c-.829 0-1.5-.671-1.5-1.5z" fill="#546d79"/><path d="m20.25 8c.414 0 .75-.336.75-.75v-1.25c0-1.241-1.009-2.25-2.25-2.25v-.5c0-.453-.371-.75-.757-.75-.184 0-.372.068-.524.22l-1.25 1.25c-.146.146-.219.338-.219.53h2.75c.829 0 1.5.671 1.5 1.5z" fill="#546d79"/><path d="m12 2c0 .55-.22 1.05-.59 1.41-.36.37-.86.59-1.41.59h-6v-4h6c1.1 0 2 .9 2 2z" fill="#00bcd4"/><path d="m4 0v4h-2c-1.1 0-2-.9-2-2 0-.55.22-1.05.59-1.41.36-.37.86-.59 1.41-.59z" fill="#4dd0e1"/><path d="m12 2h-8v2h6c.55 0 1.05-.22 1.41-.59.37-.36.59-.86.59-1.41z" fill="#00a4b9"/><path d="m4 2h-4c0 1.1.9 2 2 2h2z" fill="#43b5c4"/><path d="m12 10h-8v2h6c.55 0 1.05-.22 1.41-.59.37-.36.59-.86.59-1.41z" fill="#00a4b9"/><path d="m4 10h-4c0 1.1.9 2 2 2h2z" fill="#43b5c4"/><path d="m12 6c0 .55-.22 1.05-.59 1.41-.36.37-.86.59-1.41.59h-6v-4h6c1.1 0 2 .9 2 2z" fill="#0097a7"/><path d="m4 4v4h-2c-1.1 0-2-.9-2-2 0-.55.22-1.05.59-1.41.36-.37.86-.59 1.41-.59z" fill="#00bcd4"/><path d="m12 6h-8v2h6c.55 0 1.05-.22 1.41-.59.37-.36.59-.86.59-1.41z" fill="#008391"/><path d="m4 6h-4c0 1.1.9 2 2 2h2z" fill="#00a4b9"/></svg>